<svg id="Layer_1" enable-background="new 0 0 512 512" height="512" viewBox="0 0 512 512" width="512" xmlns="http://www.w3.org/2000/svg"><path clip-rule="evenodd" d="m256 0c-141.2 0-256 114.8-256 256s114.8 256 256 256 256-114.8 256-256-114.8-256-256-256z" fill="#fec006" fill-rule="evenodd"/><path d="m122.9 291.3v-92.3c-7.5-3.7-12.5-11.4-12.5-20.3 0-12.4 9.9-22.5 22.4-22.5s22.6 10.1 22.6 22.6c0 3.3-.7 6.6-2.1 9.6l52.8 57.1 32.6-65.2c-3.4-4-5.3-9.1-5.3-14.5 0-12.4 10.1-22.5 22.6-22.5s22.6 10.1 22.6 22.5c0 5.4-2 10.5-5.3 14.5l32.6 65.2 52.9-57.1c-1.4-3-2.1-6.3-2.1-9.6 0-12.5 10.1-22.6 22.6-22.6s22.6 10.1 22.6 22.6c0 8.8-5.1 16.5-12.5 20.2v92.4h-266.5zm273.7 18.7h-281.2c-5.2 0-9.4 4.2-9.4 9.4v40.1c0 5.2 4.2 9.4 9.4 9.4h281.3c5.2 0 9.4-4.2 9.4-9.4v-40.1c-.1-5.2-4.3-9.4-9.5-9.4z" fill="#fff"/></svg>