<svg width="33" height="33" viewBox="0 0 33 33" fill="none" xmlns="http://www.w3.org/2000/svg">
<path d="M16.3132 2.53613C13.3969 2.53944 10.6009 3.69943 8.53871 5.76161C6.47653 7.8238 5.31654 10.6198 5.31323 13.5361C5.31323 22.9486 15.3132 30.0611 15.7382 30.3611C15.9086 30.4745 16.1086 30.535 16.3132 30.535C16.5179 30.535 16.7179 30.4745 16.8882 30.3611C17.3132 30.0611 27.3132 22.9486 27.3132 13.5361C27.3099 10.6198 26.1499 7.8238 24.0878 5.76161C22.0256 3.69943 19.2296 2.53944 16.3132 2.53613V2.53613ZM16.3132 9.53613C17.1044 9.53613 17.8777 9.77073 18.5355 10.2103C19.1933 10.6498 19.706 11.2745 20.0088 12.0054C20.3115 12.7363 20.3907 13.5406 20.2364 14.3165C20.082 15.0924 19.7011 15.8052 19.1417 16.3646C18.5822 16.924 17.8695 17.3049 17.0936 17.4593C16.3177 17.6136 15.5134 17.5344 14.7825 17.2317C14.0516 16.9289 13.4269 16.4162 12.9874 15.7584C12.5478 15.1006 12.3132 14.3273 12.3132 13.5361C12.3132 12.4753 12.7347 11.4579 13.4848 10.7077C14.235 9.95756 15.2524 9.53613 16.3132 9.53613V9.53613Z" fill="#D72222"/>
</svg>
